<?xml version="1.0" encoding="utf-8"?>
<!-- Generator: Adobe Illustrator 24.1.3, SVG Export Plug-In . SVG Version: 6.00 Build 0)  -->
<svg version="1.1" id="Layer_1" xmlns="http://www.w3.org/2000/svg" xmlns:xlink="http://www.w3.org/1999/xlink" x="0px" y="0px"
	 viewBox="0 0 566.93 225.54" style="enable-background:new 0 0 566.93 225.54;" xml:space="preserve">
<style type="text/css">
	.st0{fill:#FFC20E;}
	.st1{fill:#FFFFFF;}
</style>
<path class="st0" d="M105.41,55.97c0,0,4.3-2.7,9.4-0.5c0.9,0,4.6,0.5,7.9,0.5c6.5,0,8.2,0.4,10.3,2.8c6.6,7.5-1,12.09-3.3,13.99
	c-1.9,1.4-2.3,1.8-0.9,1.8c0.9,0,9.6,4.8,11.69,6.1c12.69,8.2,9.8,21.99,9.3,24.79c-2.3,6.1-7,11.59-13.09,14.89
	c-2.3,1.4-3.2,1.4-7.4,1.4c-4.2,0.5-4.7,0.5-5.2,1.4c-0.5,1.4-2.7,2.4-7.4,2.4c-3.3,0-4.7-0.1-6.1-1c-1.9-0.9-2.3-2.8-2.8-10.69
	c-0.5-3.3-2.8-30.39-3.3-45.28c-0.5-7,0-9.9,0-10.79C105.01,56.87,105.41,55.97,105.41,55.97z M122.3,68.57c1.4-1.9,1.9-1.9,1.4-4.7
	c0-3.3-0.1-3.3-2.4-3.3c-2.3-0.5-2.3-0.4-1.4,4.7C120.4,70.86,120.4,70.86,122.3,68.57z M133,89.56c-1.9-3.3-3.3-5.2-7.5-8.9
	c-3.7-2.8-4.7-2.8-4.2-1.9c0,2.3,1.9,24.29,2.4,28.49c0.5,2.3,0.9,5.7,0.9,6.6c0,2.3,0,2.3,2.8-0.5c2.3-1.9,3.7-3.6,5.1-6.5
	C135.99,99.55,134.4,92.35,133,89.56z"/>
<path class="st0" d="M171.88,56.77c0.9,0,1.8-0.5,2.2-0.5c10.89-1.7,18.79,4.8,23.19,22.19c3.7,12.99,1.8,24.89-0.4,30.99
	c-3.5,10.89-8.4,13.89-15.39,15.19c-18.59,3.7-21.79-11.69-23.49-17.39c-2.6-9.1-2.8-20.09,0.7-32.68c1.3-7,3.1-8.4,5.7-12.29
	C166.08,60.07,170.18,57.17,171.88,56.77z M182.27,75.56c-1.3-3.5-3.6-6.7-4.9-8.9c-4.2,0.6-5.1,9.2-5.5,11.79
	c-3.1,16.19,1.9,37.98,6.1,38.38c6.9-6.4,6.4-15.99,6.4-24.69C184.37,83.46,183.97,82.56,182.27,75.56z"/>
<path class="st0" d="M205.76,57.27c0.4-1.7,2.1-3.4,3.3-3.8c1.2-0.8,5-0.8,6.2-0.4c0.4,0.4,1.7,1.3,2.1,1.7c0.8,0.8,0.8,0.8,4.5,0.4
	c4.5-0.8,11.19-0.8,14.09,0c5.4,1.2,7.8,3.7,6.6,7c-0.8,2.9-9.5,9.9-16.09,13.19c-1.7,0.8-2.5,1.7-1.7,1.7s3.7,4.1,5.4,7.4
	c0.8,1.7,5.3,10.3,7,13.59c2.1,3.3,8.7,15.29,9.5,16.49c1.7,2.5,1.6,3.8,0.4,4.6c-1.7,0.8-4.9,0.8-6.6,0
	c-2.9-0.8-8.6-9.9-16.89-26.39c-2.9-6.2-2.9-6.2-2.9,10.69c-0.4,9.5-0.4,17.69-0.8,17.69c0,0.4-0.9,0.9-2.1,1.7
	c-2.1,0.8-8.6,0.8-11.09,0c-2.9-1.2-2.9-1.2-2.5-23.49C204.56,72.16,204.96,59.37,205.76,57.27z M221.85,71.66
	c11.59-8.3,14.09-11.1,11.19-12.79c-0.4-0.4-1.7-0.8-2.5-0.8c-1.7,0-7.8,0.8-9.9,1.6c-1.2,0.4-1.2,0.5-1.2,5c0,2.1,0.4,5,0.4,6.2
	C220.25,72.96,220.15,72.86,221.85,71.66z"/>
<path class="st1" d="M260.73,86.86c4.7-5.8,9.5-8.2,12.89-9.5c4.8-1.3,13.09-0.9,13.09,1.1c0,0.7-1.4,0.6-3.4,1.3
	c-15.59,5.2-16.79,17.79-16.39,22.69c0.5,5.3,1.4,9,2.7,8.3s5.5-11.69,7.5-19.79c1.3-3.4,2.7-4.8,8.1-4.8c5.4,0,7.7,2,7.6,5.4
	c-0.9,48.38-8.9,53.77-12.29,55.77c-9.6,7.4-20.79,3.6-25.19-5.4c-3.5-7.4-2.2-10.3-0.9-10.3c3.5-1.4,4.5,0.5,4.8,4.7
	c0.8,3.7,2.5,5.3,3.8,7.3c2.7,3.4,5.3,3,8-2.4c1.3-2.7,1.9-6.1,2.6-10.89c1.3-10.19,1.5-10.3-2.6-10.19
	c-15.69,0.5-17.69-12.19-16.99-18.29C254.73,95.75,256.03,92.65,260.73,86.86z"/>
<path class="st1" d="M299.71,87.56c0.3-8.8,2.1-9.3,3.5-10c1.8-1.4,5.9-1.5,7-0.4c2.7,2,2.9,7,2.6,21.59c-0.2,2.3-0.1,8.6,0.3,14.49
	c0.3,9.3,0.3,9.7-0.6,10.99c-8.3,4.4-10.8,0.1-11.99-3.2C298.71,117.24,298.11,103.95,299.71,87.56z M300.01,64.87
	c0.5-4.6,4.4-4.7,6.8-4.9c2.9-0.2,3.4-0.5,4.5,0.6c1.1,1.6,1,5.4-0.3,7.3c-2.3,2-7.6,2.7-10.3,0.7
	C299.71,68.17,299.71,66.57,300.01,64.87z"/>
<path class="st1" d="M321.8,89.06c2.9-5.4,8.7-10.79,14.09-12.39c1.6-0.4,6.3-0.8,7.9-0.4c2.1,0.9,1.7,1.6-0.8,2.8
	c-2.1,0.9-3.4,2.1-4.6,3.7c-0.4,1.2-0.3,1.3,3.4,1.3c2.9-0.4,3.7-0.1,5.8,0.8c5.4,2.5,9.5,8.3,9.9,14.09
	c0.9,9.1-3.8,15.39-12.89,18.69c-3.7,1.2-11.99,1.2-15.69,0c-7.9-3.6-9.99-10.3-9.99-15.69C318.9,96.55,319.7,93.65,321.8,89.06z
	 M342.99,105.15c2.1-5.8,0.8-10.3-4.2-15.29c-1.2-1.6-2.9-2.9-2.9-2.9c-0.4,0-2,5.4-2.4,8.3c-1.2,5.8-1.4,7.9-0.5,10.79
	c1.2,2.9,3.6,6.3,4.6,5.8C341.29,109.95,342.59,107.25,342.99,105.15z"/>
<path class="st1" d="M363.58,76.06c0.5-0.5,1.7-0.8,2.5-1.3c1.8-0.5,6.1,0.1,7.9,0.9c3.9,3.3,3.8,8.7,4.3,10c0.5,3,0.4,3.1,0.9,1.8
	c1.8-2.2,2.6-5.9,7.3-8c5.4-2.3,9.3-0.2,10.6,1.1c0.8,1.3,0.5,1.7-1.7,3c-10.69,4-10.99,9.2-15.29,20.89c-0.5,1.3-0.5,3.5-0.5,7.8
	c0.5,6.1,0.5,6.1-1.3,7.4c-3.2,1.5-10.4,0.8-11.69,0c-1.8-1.3-1.8-1.3-1.8-7.4c0-10-0.4-25.29-1.2-28.79
	C362.28,76.86,362.28,76.86,363.58,76.06z"/>
<path class="st1" d="M402.16,78.26c0-0.5,1-0.9,1.9-0.9c2.4-0.9,6.2-0.5,8.1,0.4c1.9,0.5,2.9,4.8,3.8,12.79c0.5,3.3,0.5,3.3,1.4,1.4
	c1.4-2.8,4.7-5.7,7.1-6.6c3.8-1.9,8-0.9,10.4,1.9c1.9,3.3,2.8,7.1,2.8,18.49c0.5,10.89,0.5,11.79-2.3,12.69c-2.8,1.4-9,0.5-10.4-1.4
	c-1.3-1.7,1.1-14.29,1.1-18.59c0.5-7.6,0.2-8.3-0.7-6.9c-1.9,1.9-8.5,12.79-9,14.19c-0.5,0.9-0.4,4.7-0.4,9.4c0,8.5-3.8,8.9-8.7,9.6
	c-5.2-0.7-6.5,2.6-6-23.79C401.46,89.16,401.66,78.76,402.16,78.26z"/>
<path class="st1" d="M446.84,89.06c2.9-5.4,8.7-10.79,14.09-12.39c1.6-0.4,6.3-0.8,7.9-0.4c2.1,0.9,1.7,1.6-0.8,2.8
	c-2.1,0.9-3.4,2.1-4.6,3.7c-0.4,1.2-0.3,1.3,3.4,1.3c2.9-0.4,3.7-0.1,5.8,0.8c5.4,2.5,9.5,8.3,9.9,14.09
	c0.9,9.1-3.8,15.39-12.89,18.69c-3.7,1.2-11.99,1.2-15.69,0c-7.9-3.6-9.99-10.3-9.99-15.69C443.94,96.55,444.74,93.65,446.84,89.06z
	 M468.03,105.15c2.1-5.8,0.8-10.3-4.2-15.29c-1.2-1.6-2.9-2.9-2.9-2.9c-0.4,0-2,5.4-2.4,8.3c-1.2,5.8-1.4,7.9-0.5,10.79
	c1.2,2.9,3.6,6.3,4.6,5.8C466.33,109.95,467.63,107.25,468.03,105.15z"/>
<path class="st1" d="M396.79,195.72c-5.74,0-11.43-0.67-16.97-2.03c-39.06-9.61-52.83-49.78-53.4-51.49
	c-1.39-4.19,0.87-8.72,5.07-10.12c4.19-1.39,8.72,0.87,10.12,5.07c0.45,1.36,11.46,33.48,42.04,41
	c29.46,7.25,62.64-11.14,75.55-41.85c1.71-4.07,6.41-5.99,10.47-4.27c4.07,1.71,5.99,6.4,4.28,10.48
	c-7.85,18.68-21.92,34.16-39.62,43.58C422.34,192.45,409.44,195.72,396.79,195.72z"/>
</svg>
